<svg width="41" height="41" viewBox="0 0 41 41" fill="none" xmlns="http://www.w3.org/2000/svg">
<path d="M39.3181 9.47649C40.3894 8.44192 40.9862 7.05185 40.9998 5.56271C41.0133 4.07117 40.4405 2.66911 39.386 1.61457C38.3435 0.572009 36.9614 0 35.4898 0H35.4379C33.948 0.0135812 32.5579 0.611155 31.5233 1.68247L23.8604 9.51244L19.7608 9.02991L21.7273 7.06343L20.0326 5.36873L16.7278 8.67352L13.7457 8.32281L15.9921 6.07631L14.2974 4.38162L10.7133 7.96578H10.713L7.83222 7.62705H7.83206L10.1131 5.34604L8.41845 3.65135L4.799 7.27074L0.0814866 6.71551V13.3112L14.1331 19.6432L8.97711 24.9687L3.81469 24.713L0 28.5277L4.58003 33.1069L7.766 33.2339L7.89302 36.4207L12.473 41L16.2869 37.1861L16.0321 32.0228L21.3575 26.8668L27.6895 40.9033H34.2851L33.7299 36.1859L37.3413 32.5744L35.6466 30.8797L33.3728 33.1535V33.1533L33.034 30.2724V30.2722L36.611 26.6952L34.9163 25.0005L32.677 27.2398V27.2398L32.3263 24.2576L35.624 20.96L33.9293 19.2653L31.9692 21.2254L31.4883 17.1393L39.3181 9.47649ZM33.2394 3.35616L33.2449 3.34977C33.8305 2.74261 34.6166 2.40467 35.4595 2.39668H35.489C36.3207 2.39668 37.102 2.72024 37.6908 3.30902C38.2867 3.905 38.6111 4.6975 38.6031 5.54034C38.5959 6.38317 38.2572 7.17008 37.6508 7.75487L34.5208 10.8186L30.182 6.47984L33.2394 3.35616ZM29.2369 38.5067L22.1396 22.7733L13.5843 31.057L13.8407 36.2427L12.473 37.6112L10.2505 35.3886L10.0724 30.9284L5.61139 30.7495L3.38968 28.5277L4.75738 27.1592L9.94377 27.4157L18.2274 18.8595L2.47815 11.7629V9.41098L24.7504 12.0306L28.5059 8.19347L28.5061 8.19331L32.8073 12.4946L32.8072 12.4947L28.9701 16.2503L31.5897 38.5067H29.2369Z" fill="white"/>
</svg>
