<svg width="45" height="45" viewBox="0 0 45 45" fill="none" xmlns="http://www.w3.org/2000/svg">
<path d="M43.3915 16.0718C43.1043 16.0718 42.814 15.9949 42.5503 15.8333L22.5003 3.49483L2.44941 15.8333C1.69292 16.2986 0.702581 16.0624 0.238801 15.3067C-0.226549 14.551 0.00887227 13.5615 0.76536 13.0961L21.6582 0.238953C22.1746 -0.0796509 22.8259 -0.0796509 23.3423 0.238953L44.2359 13.0961C44.9908 13.5615 45.2263 14.551 44.7617 15.3067C44.4588 15.8003 43.9314 16.0718 43.3915 16.0718Z" fill="white"/>
<path d="M40.1788 45.0004H4.82162C3.93408 45.0004 3.21448 44.2808 3.21448 43.3932V17.6789C3.21448 16.7914 3.93408 16.0718 4.82162 16.0718C5.70916 16.0718 6.42877 16.7914 6.42877 17.6789V41.7861H38.5716V17.6789C38.5716 16.7914 39.2905 16.0718 40.1788 16.0718C41.0671 16.0718 41.7859 16.7914 41.7859 17.6789V43.3932C41.7859 44.2808 41.0671 45.0004 40.1788 45.0004Z" fill="white"/>
<path d="M32.9875 21.1333C32.9547 21.113 23.2197 16.2412 23.2197 16.2412C22.7676 16.0152 22.234 16.0152 21.782 16.2412C21.782 16.2412 12.0472 21.1116 12.0122 21.1333C11.539 21.426 11.2502 21.9432 11.2502 22.5003V33.7503C11.2502 34.3593 11.594 34.9157 12.1386 35.188L21.7814 40.0094C22.0074 40.1224 22.2538 40.1789 22.5002 40.1789C22.7467 40.1789 22.9931 40.1224 23.2191 40.0094L32.8619 35.188C33.4065 34.9157 33.7503 34.3593 33.7503 33.7503V22.5003C33.7503 21.9432 33.4615 21.426 32.9875 21.1333ZM22.5008 19.4758L28.5494 22.5001L22.5002 25.5247L16.4517 22.5004L22.5008 19.4758ZM14.4645 25.1009L20.8931 28.3152V35.9711L14.4645 32.7569V25.1009ZM30.536 32.7569L24.1074 35.9711V28.3152L30.536 25.1009V32.7569Z" fill="white"/>
</svg>
