<svg width="64" height="53" viewBox="0 0 64 53" fill="none" xmlns="http://www.w3.org/2000/svg">
<path d="M54.625 28.0171H48.3602C47.5076 28.0171 46.6821 28.1335 45.8965 28.3475C44.3467 25.3048 41.1828 23.2143 37.5369 23.2143H26.4631C22.8173 23.2143 19.6532 25.3048 18.1035 28.3475C17.3179 28.1335 16.4924 28.0171 15.6397 28.0171H9.375C4.20563 28.0171 0 32.2174 0 37.3802V47.3822C0 50.4798 2.52338 53 5.625 53H58.375C61.4766 53 64 50.4798 64 47.3822V37.3802C64 32.2174 59.7944 28.0171 54.625 28.0171ZM17.0881 32.5776V49.2549H5.625C4.59113 49.2549 3.75 48.4148 3.75 47.3823V37.3803C3.75 34.2826 6.27338 31.7625 9.375 31.7625H15.6397C16.1488 31.7625 16.6416 31.8315 17.1109 31.9587C17.0974 32.1636 17.0881 32.3696 17.0881 32.5776ZM43.1619 49.2549H20.8381V32.5774C20.8381 29.4798 23.3615 26.9596 26.4631 26.9596H37.5369C40.6385 26.9596 43.1619 29.4798 43.1619 32.5774V49.2549ZM60.25 47.3823C60.25 48.4148 59.4089 49.2549 58.375 49.2549H46.9119V32.5774C46.9119 32.3693 46.9026 32.1633 46.8891 31.9586C47.3584 31.8315 47.8512 31.7623 48.3602 31.7623H54.625C57.7266 31.7623 60.25 34.2825 60.25 37.3802V47.3823Z" fill="#EE312A"/>
<path d="M12.5075 10.3337C7.91387 10.3337 4.17675 14.0661 4.17675 18.6538C4.17662 23.2416 7.91387 26.974 12.5075 26.974C17.101 26.974 20.8382 23.2416 20.8382 18.6538C20.8382 14.0661 17.1011 10.3337 12.5075 10.3337ZM12.5074 23.2287C9.9815 23.2287 7.92662 21.1765 7.92662 18.6538C7.92662 16.1312 9.9815 14.0789 12.5074 14.0789C15.0332 14.0789 17.0881 16.1312 17.0881 18.6538C17.0881 21.1765 15.0332 23.2287 12.5074 23.2287Z" fill="#EE312A"/>
<path d="M32 0C25.863 0 20.8703 4.98639 20.8703 11.1156C20.8703 17.2447 25.863 22.2311 32 22.2311C38.137 22.2311 43.1297 17.2447 43.1297 11.1156C43.1297 4.98651 38.137 0 32 0ZM32 18.4859C27.9307 18.4859 24.6203 15.1796 24.6203 11.1156C24.6203 7.05163 27.9307 3.74522 32 3.74522C36.0693 3.74522 39.3797 7.0515 39.3797 11.1156C39.3797 15.1796 36.0693 18.4859 32 18.4859Z" fill="#EE312A"/>
<path d="M51.4925 10.3337C46.899 10.3337 43.1618 14.0661 43.1618 18.6538C43.1619 23.2416 46.899 26.974 51.4925 26.974C56.0861 26.974 59.8232 23.2416 59.8232 18.6538C59.8232 14.0661 56.0861 10.3337 51.4925 10.3337ZM51.4925 23.2287C48.9668 23.2287 46.9118 21.1765 46.9118 18.6538C46.9119 16.1312 48.9668 14.0789 51.4925 14.0789C54.0184 14.0789 56.0732 16.1312 56.0732 18.6538C56.0732 21.1765 54.0184 23.2287 51.4925 23.2287Z" fill="#EE312A"/>
</svg>
