<svg width="60" height="60" viewBox="0 0 60 60" fill="none" xmlns="http://www.w3.org/2000/svg">
<path d="M20.7386 26.0156H39.2614C40.2678 26.0156 41.2003 25.5608 41.82 24.7678C42.4397 23.9748 42.6553 22.9598 42.4118 21.9833L41.0285 16.4358C40.3656 13.777 38.3788 11.7388 35.8744 10.9475C36.6176 9.83063 37.0519 8.49117 37.0519 7.05188C37.0519 3.16348 33.8884 0 30 0C26.1116 0 22.9481 3.16348 22.9481 7.05199C22.9481 8.49129 23.3824 9.83063 24.1256 10.9477C21.6212 11.7389 19.6344 13.7771 18.9715 16.4359L17.5882 21.9834C17.3447 22.96 17.5604 23.9748 18.18 24.7679C18.7996 25.5611 19.7322 26.0156 20.7386 26.0156ZM30 3.51563C31.9499 3.51563 33.5362 5.10199 33.5362 7.05199C33.5362 9.00188 31.9499 10.5882 30 10.5882C28.0501 10.5882 26.4638 9.00188 26.4638 7.05199C26.4638 5.10199 28.0501 3.51563 30 3.51563ZM22.3826 17.2863C22.8498 15.4125 24.5249 14.1039 26.4559 14.1039H33.544C35.4751 14.1039 37.1501 15.4125 37.6173 17.2863L38.9174 22.5H21.0826L22.3826 17.2863Z" fill="#EE312A"/>
<path d="M59.9557 17.8327C59.9495 15.1554 57.943 12.8755 55.2885 12.5293C53.7592 12.3294 52.2172 12.7991 51.0582 13.8166C49.8992 14.8344 49.2346 16.3025 49.2346 17.8448L49.2347 26.3868C49.1242 26.3797 49.0128 26.3762 48.9012 26.3762C47.5132 26.3762 46.2083 26.9167 45.227 27.8981L40.6188 32.5062C40.5738 32.5511 40.5114 32.5724 40.4485 32.5655C40.4167 32.5618 40.3848 32.559 40.3527 32.5572L38.286 32.4336C36.5703 32.2521 34.8889 32.8458 33.6667 34.0678L30.8166 36.918C30.5198 37.2146 30.2482 37.5295 30.0001 37.8587C29.752 37.5294 29.4803 37.2146 29.1837 36.918L26.3334 34.0677C25.1113 32.8458 23.4306 32.2522 21.7143 32.4336L19.6475 32.5572C19.6156 32.5591 19.5836 32.5618 19.5517 32.5655C19.4878 32.5726 19.4264 32.5511 19.3814 32.5063L14.7733 27.8981C13.7918 26.9167 12.487 26.3762 11.0991 26.3762C10.9874 26.3762 10.8761 26.3797 10.7656 26.3868L10.7657 17.8448C10.7657 16.3025 10.1011 14.8344 8.94201 13.8166C7.78302 12.7989 6.24119 12.3293 4.71177 12.5293C2.05713 12.8755 0.050644 15.1554 0.0444331 17.8327L1.90746e-05 37.2077C-0.00455124 39.2285 0.812362 41.2071 2.24123 42.636L13.4766 53.8712V57.0703C13.4766 58.6857 14.7908 60 16.4063 60H28.8281C29.2447 60 29.6408 59.912 30 59.7546C30.3592 59.912 30.7553 60 31.1719 60H43.5937C45.2092 60 46.5234 58.6857 46.5234 57.0703V53.8712L57.7588 42.636C59.1876 41.2071 60.0046 39.2285 60 37.2077L59.9557 17.8327ZM55.2729 40.1501L43.5227 51.9002C43.1931 52.2299 43.0078 52.677 43.0078 53.1431V56.4844H31.7578V43.1331C31.7578 41.7244 32.3064 40.4002 33.3025 39.4042L36.1526 36.5541C36.624 36.0826 37.2742 35.8556 37.9363 35.9322C37.9683 35.9358 38.0003 35.9387 38.0325 35.9406L40.1025 36.0642C41.2185 36.177 42.3098 35.7872 43.1048 34.9924L47.713 30.3843C48.3683 29.7293 49.4342 29.7291 50.0896 30.3843C50.7448 31.0396 50.7448 32.1055 50.0896 32.7608L43.5228 39.3275C42.8364 40.0139 42.8364 41.127 43.5228 41.8134C44.2092 42.4998 45.3223 42.4998 46.0087 41.8134L52.5755 35.2467C53.5569 34.2653 54.0974 32.9604 54.0974 31.5724C54.0974 30.2694 53.621 29.0395 52.7505 28.0819L52.7504 17.8451C52.7504 17.3064 52.9733 16.8141 53.378 16.4587C53.7827 16.1033 54.2996 15.9464 54.834 16.0157C55.7476 16.1348 56.4381 16.9195 56.4403 17.8409L56.4844 37.2157C56.4868 38.3081 56.0452 39.3777 55.2729 40.1501ZM4.72724 40.1501C3.95486 39.3776 3.5133 38.308 3.51576 37.2157L3.56006 17.8407C3.56217 16.9193 4.25275 16.1345 5.16634 16.0154C5.7006 15.9461 6.21751 16.1031 6.62228 16.4585C7.02705 16.8138 7.24982 17.3061 7.24982 17.8448L7.2497 28.0816C6.37923 29.0393 5.90287 30.2692 5.90287 31.5722C5.90287 32.9602 6.44334 34.265 7.42478 35.2465L13.9915 41.8132C14.6779 42.4996 15.7909 42.4996 16.4774 41.8132C17.1639 41.1268 17.1639 40.0138 16.4774 39.3273L9.91056 32.7607C9.25536 32.1054 9.25536 31.0395 9.91056 30.3841C10.5659 29.7291 11.6318 29.7292 12.2871 30.3841L16.8954 34.9924C17.6902 35.7872 18.7813 36.177 19.8976 36.0642L21.9676 35.9406C21.9997 35.9386 22.0318 35.9358 22.0638 35.9322C22.7256 35.8563 23.3761 36.0826 23.8474 36.5539L26.6977 39.4042C27.6938 40.4002 28.2422 41.7245 28.2422 43.1331V56.4844H16.9922V53.1431C16.9922 52.6768 16.8069 52.2298 16.4773 51.9002L4.72724 40.1501Z" fill="#EE312A"/>
</svg>
