<svg width="71" height="49" viewBox="0 0 71 49" fill="none" xmlns="http://www.w3.org/2000/svg">
<path d="M53.6229 31.1818C48.688 31.1818 44.6733 35.1783 44.6733 40.0909C44.6733 45.0035 48.688 49 53.6229 49C58.5586 49 62.5725 45.0035 62.5725 40.0909C62.5725 35.1783 58.5578 31.1818 53.6229 31.1818ZM53.6229 44.5454C51.1551 44.5454 49.1481 42.5475 49.1481 40.0909C49.1481 37.6342 51.1551 35.6363 53.6229 35.6363C56.0907 35.6363 58.0977 37.6342 58.0977 40.0909C58.0977 42.5477 56.0907 44.5454 53.6229 44.5454Z" fill="#EE312A"/>
<path d="M23.0452 31.1818C18.1103 31.1818 14.0956 35.1783 14.0956 40.0909C14.0956 45.0035 18.1103 49 23.0452 49C27.9801 49 31.9948 45.0035 31.9948 40.0909C31.9948 35.1783 27.9801 31.1818 23.0452 31.1818ZM23.0452 44.5454C20.5774 44.5454 18.5704 42.5475 18.5704 40.0909C18.5704 37.6342 20.5774 35.6363 23.0452 35.6363C25.5123 35.6363 27.52 37.6342 27.52 40.0909C27.52 42.5477 25.513 44.5454 23.0452 44.5454Z" fill="#EE312A"/>
<path d="M59.6497 5.68108C59.2693 4.92902 58.496 4.45456 57.6502 4.45456H45.8666V8.90911H56.2704L62.3628 20.972L66.3619 18.9703L59.6497 5.68108Z" fill="#EE312A"/>
<path d="M46.9108 37.9379H29.9811V42.3925H46.9108V37.9379Z" fill="#EE312A"/>
<path d="M16.3329 37.9379H8.57672C7.34087 37.9379 6.33939 38.935 6.33939 40.1651C6.33939 41.3954 7.34101 42.3924 8.57672 42.3924H16.3331C17.5689 42.3924 18.5704 41.3953 18.5704 40.1651C18.5704 38.9349 17.5688 37.9379 16.3329 37.9379Z" fill="#EE312A"/>
<path d="M70.5302 24.3218L66.1293 18.6794C65.7065 18.1359 65.0539 17.8181 64.3625 17.8181H48.104V2.22721C48.104 0.996957 47.1024 0 45.8667 0H8.57672C7.34087 0 6.33939 0.997095 6.33939 2.22721C6.33939 3.45732 7.34101 4.45442 8.57672 4.45442H43.6292V20.0453C43.6292 21.2756 44.6309 22.2725 45.8666 22.2725H63.2668L66.5252 26.4508V37.9377H60.335C59.0992 37.9377 58.0977 38.9348 58.0977 40.1649C58.0977 41.3951 59.0993 42.3921 60.335 42.3921H68.7625C69.9984 42.3921 70.9999 41.395 71 40.1649V25.6879C71 25.1934 70.8344 24.7123 70.5302 24.3218Z" fill="#EE312A"/>
<path d="M16.1838 26.6531H5.89175C4.65591 26.6531 3.65442 27.6502 3.65442 28.8803C3.65442 30.1105 4.65605 31.1075 5.89175 31.1075H16.1837C17.4195 31.1075 18.421 30.1104 18.421 28.8803C18.4212 27.6502 17.4195 26.6531 16.1838 26.6531Z" fill="#EE312A"/>
<path d="M21.3298 17.8924H2.23733C1.00163 17.8924 0 18.8895 0 20.1197C0 21.35 1.00163 22.3469 2.23733 22.3469H21.3298C22.5657 22.3469 23.5671 21.3498 23.5671 20.1197C23.5671 18.8896 22.5657 17.8924 21.3298 17.8924Z" fill="#EE312A"/>
<path d="M24.9842 9.13178H5.89175C4.65591 9.13178 3.65442 10.1289 3.65442 11.359C3.65442 12.5892 4.65605 13.5862 5.89175 13.5862H24.9842C26.2201 13.5862 27.2216 12.5891 27.2216 11.359C27.2217 10.1289 26.2201 9.13178 24.9842 9.13178Z" fill="#EE312A"/>
</svg>
