<svg width="60" height="60" viewBox="0 0 60 60" fill="none" xmlns="http://www.w3.org/2000/svg">
<g clip-path="url(#clip0_389_262)">
<path d="M31.0323 2.06472C26.3973 2.06472 21.8279 3.18144 17.7329 5.30377L12.9447 0.515365C12.5212 0.0916503 11.9111 -0.0874104 11.3258 0.0400207C10.7405 0.167452 10.2601 0.583891 10.0509 1.14525L7.63298 7.63285L1.14549 10.0506C0.584135 10.2599 0.167695 10.7402 0.0402643 11.3255C-0.0870495 11.9108 0.0918938 12.5209 0.515608 12.9445L5.3039 17.7329C3.18157 21.8278 2.06485 26.3971 2.06485 31.0322C2.06485 47.005 15.0595 59.9998 31.0323 59.9998C47.0051 59.9998 60 47.005 60 31.0322C60 15.0594 47.0051 2.06472 31.0323 2.06472ZM31.0323 40.5658C36.2893 40.5658 40.5661 36.2891 40.5661 31.0322C40.5661 25.7752 36.2893 21.4986 31.0323 21.4986C29.0385 21.4986 27.1865 22.1148 25.6546 23.1654L21.2289 18.7397C23.9196 16.5895 27.3282 15.3017 31.0323 15.3017C39.7061 15.3017 46.7628 22.3584 46.7628 31.0322C46.7628 39.706 39.7061 46.7627 31.0323 46.7627C22.3586 46.7627 15.302 39.706 15.302 31.0322C15.302 27.3281 16.5896 23.9195 18.7398 21.2288L23.1655 25.6545C22.115 27.1864 21.4987 29.0384 21.4987 31.0322C21.4987 36.289 25.7755 40.5658 31.0323 40.5658ZM32.2769 29.7876L28.2123 25.7229C29.054 25.2741 30.0138 25.0186 31.0323 25.0186C34.3482 25.0186 37.0459 27.7163 37.0459 31.0321C37.0459 34.3479 34.3482 37.0455 31.0323 37.0455C27.7165 37.0455 25.0189 34.3479 25.0189 31.0321C25.0189 30.0134 25.2743 29.0538 25.7232 28.212L29.7878 32.2767C30.1315 32.6204 30.582 32.7922 31.0323 32.7922C31.4828 32.7922 31.9333 32.6203 32.2768 32.2767C32.9643 31.5894 32.9643 30.4749 32.2769 29.7876ZM12.3928 4.94166L18.3156 10.8646L17.5542 15.0648L11.0456 8.55632L12.3928 4.94166ZM4.9419 12.3925L8.55656 11.0454L15.0652 17.5539L10.8649 18.3155L4.9419 12.3925ZM31.0323 56.4796C17.0007 56.4796 5.58504 45.0639 5.58504 31.0322C5.58504 27.3384 6.39258 23.6929 7.93431 20.3632L9.02733 21.4562C9.36034 21.7893 9.80928 21.9718 10.2718 21.9718C10.3762 21.9718 10.4812 21.9625 10.5858 21.9436L14.4645 21.2405C12.7614 24.1112 11.7819 27.4592 11.7819 31.0322C11.7819 41.647 20.4176 50.2829 31.0324 50.2829C41.6472 50.2829 50.2831 41.647 50.2831 31.0322C50.2831 20.4174 41.6472 11.7815 31.0324 11.7815C27.4594 11.7815 24.1115 12.7612 21.2408 14.4643L21.9439 10.5856C22.0468 10.0177 21.8647 9.43519 21.4566 9.02708L20.3635 7.93406C23.6932 6.39233 27.3387 5.5848 31.0326 5.5848C45.0643 5.5848 56.4799 17.0005 56.4799 31.0321C56.4798 45.0639 45.0641 56.4796 31.0323 56.4796Z" fill="#EE312A"/>
</g>
<defs>
<clipPath id="clip0_389_262">
<rect width="60" height="60" fill="white"/>
</clipPath>
</defs>
</svg>
