<svg width="118" height="60" viewBox="0 0 118 60" fill="none" xmlns="http://www.w3.org/2000/svg">
<path d="M118 43.7096H97.7269C96.6102 44.7458 95.4165 46.0313 94.1651 46.914H118" fill="#231F20"/>
<path d="M32.2676 0.0191877L5.54479 24.4643L5.04422 24.9249C3.83129 26.2872 3.25371 27.8989 3.25371 29.4723C3.25371 32.4272 5.256 35.2478 8.66373 36.0345L22.8722 38.8935L23.3536 39.047C24.5472 39.45 25.1826 40.6204 25.1826 41.81C25.1826 42.6735 24.836 43.5369 24.1237 44.055L23.8349 44.2661L0 60H19.8303L30.8621 44.8033C31.767 43.6137 32.1906 42.2514 32.1906 40.889C32.1906 39.1621 31.4975 37.4544 30.2845 36.188V33.0796H29.5914V35.574C28.8021 34.96 27.8587 34.5187 26.7998 34.3076L12.649 31.583L12.1677 31.4295C10.9548 30.9882 10.2617 29.8369 10.2617 28.6665C10.2617 27.8798 10.589 27.0931 11.3014 26.5366L29.6107 12.5296V16.7317H30.3038V12.0115L32.2483 10.5149L32.2868 0L32.2676 0.0191877Z" fill="#231F20"/>
<path d="M52.3097 27.7454H44.7819V15.7531H52.3097C56.1217 15.7531 58.9519 18.0748 58.9519 21.6821C58.9519 25.7883 56.1217 27.7646 52.3097 27.7646M58.7978 28.8775C60.4343 27.9949 62.8602 25.5197 62.8602 21.6629C62.8602 16.2328 58.355 12.3377 52.791 12.3377H41.0468V40.9658H44.7626V30.9882H53.2916C57.7004 30.9882 60.184 33.8088 60.184 37.2626C60.184 40.7163 57.7004 43.5753 53.2916 43.5753H35.1747C34.5587 44.8801 33.9426 45.9162 33.1339 46.8756H53.4456C59.4909 46.8756 64.0923 43.1724 64.0923 37.2434C64.0923 32.7918 61.6665 29.9328 58.7978 28.8391M93.9148 15.1775C91.0462 13.0668 87.4459 11.8388 83.3836 11.8388C73.3722 11.8388 65.5941 19.7442 65.5941 29.6258C65.5941 39.5075 73.3722 47.4129 83.3836 47.4129C86.9646 47.4129 90.2183 46.4535 92.8944 44.7649C91.8163 44.0166 90.8344 43.134 89.9488 42.1746C88.0427 43.1532 85.8287 43.748 83.3836 43.748C75.4129 43.748 69.5024 37.4736 69.5024 29.6258C69.5024 21.7781 75.3937 15.5037 83.3836 15.5037C86.1945 15.5037 88.7166 16.2904 90.8151 17.576C91.7585 16.6741 92.7982 15.8682 93.9148 15.1967" fill="#231F20"/>
<path d="M29.8995 16.4247L30.7851 16.4631L31.6322 16.5782C41.1046 18.9191 40.4115 31.9667 30.7851 33.2139L29.8995 33.2523L29.0909 33.2139C19.503 31.8324 18.8484 19.015 28.2438 16.5782L29.0909 16.4631L29.8995 16.4247Z" fill="#EE312A"/>
<path d="M36.9652 24.2917H33.9811C33.9426 23.1404 33.7693 22.0659 33.4998 21.1065C34.2891 20.953 35.0015 20.7803 35.5791 20.5692C36.4262 21.6629 36.8882 22.9485 36.9845 24.2725M35.0785 20.0128C34.6934 20.1471 34.0773 20.3198 33.288 20.4733C32.9414 19.4947 32.4601 18.6697 31.9018 18.094C33.211 18.5161 34.2699 19.1877 35.0785 20.032M32.6334 20.5884C31.9403 20.6844 31.1509 20.7611 30.2653 20.7803V17.8254H30.3231C31.2664 18.0556 32.0943 19.0918 32.6334 20.5884ZM29.5914 24.2917H26.6073C26.6458 23.1596 26.8191 22.0851 27.0886 21.1641C27.9357 21.3176 28.8021 21.4135 29.5914 21.4327V24.2917ZM29.5914 20.7803C28.7443 20.7803 27.9742 20.6844 27.2811 20.5692C27.8202 19.0534 28.6481 18.0365 29.5914 17.8254V20.7803ZM28.0127 18.0748C27.4736 18.6505 26.9923 19.4563 26.6458 20.4349C25.9142 20.2814 25.3173 20.1087 24.8938 19.9552C25.6831 19.1302 26.742 18.4778 28.032 18.0556M26.4533 21.0489C26.1645 22.0275 25.9912 23.1212 25.9527 24.2917H22.9493C23.0648 22.9485 23.5461 21.6437 24.4125 20.5309C24.8938 20.6844 25.6254 20.8762 26.4725 21.0489M30.2653 24.2917V21.4519C31.0932 21.4519 31.9788 21.3559 32.8259 21.2216C33.0762 22.1234 33.2495 23.1788 33.288 24.2917H30.2653ZM22.9108 24.9632H25.9142C25.9142 26.268 26.1067 27.496 26.4147 28.5705C25.5484 28.7432 24.7783 28.9351 24.3162 29.1078C23.4113 27.8989 22.93 26.4407 22.9108 24.9632ZM24.7975 29.6642C25.2211 29.5299 25.8372 29.338 26.6073 29.1653C26.9538 30.1631 27.4351 30.9882 27.9935 31.583C26.665 31.1992 25.6061 30.5085 24.7975 29.6642ZM27.2619 29.0502C27.955 28.9351 28.7443 28.8583 29.5914 28.8391V31.8708C28.6288 31.6597 27.8009 30.6044 27.2619 29.0694M30.2653 24.9632H33.3072C33.3072 26.2104 33.1339 27.3809 32.8452 28.3978C31.9788 28.2635 31.0932 28.1868 30.2653 28.1676V24.9632ZM30.2653 28.82C31.1509 28.82 31.9595 28.9159 32.6526 29.0118C32.0943 30.5852 31.2472 31.6597 30.2653 31.8516V28.82ZM31.9018 31.583C32.4601 30.9882 32.9414 30.1439 33.3072 29.1461C34.1543 29.3188 34.7897 29.4915 35.1555 29.6258C34.3469 30.5085 33.2495 31.1992 31.9018 31.6022M33.4998 28.4938C33.7885 27.4384 33.9618 26.2296 33.9811 24.9632H36.9845C36.9845 26.4215 36.5032 27.8606 35.6368 29.0502C35.0592 28.8391 34.3276 28.6473 33.4998 28.4938ZM29.5914 24.9632V28.1676C28.8021 28.1868 27.9165 28.3019 27.0693 28.4554C26.7806 27.4384 26.6073 26.2488 26.6073 24.9824H29.6107L29.5914 24.9632ZM31.4782 17.2498L30.7081 17.1538L29.8995 17.1154L29.1679 17.1538L28.3978 17.2498C19.7726 19.4947 20.3694 31.2568 29.1679 32.5232L29.8995 32.5616L30.7081 32.5232C39.5451 31.3719 40.1805 19.3988 31.4782 17.2498Z" fill="white"/>
<path d="M84.9238 28.7816V25.0784H85.4051V28.417H87.7347V28.7816H84.9238Z" fill="#231F20"/>
<path d="M84.9623 25.1167H85.3666V28.4554H87.6962V28.7432H84.9623V25.1167Z" fill="black"/>
<path d="M90.2568 25.3662C89.814 25.3662 89.4482 25.5005 89.1787 25.7691C88.8899 26.0569 88.7551 26.4407 88.7551 26.9396C88.7551 27.4384 88.8899 27.8222 89.1787 28.11C89.4482 28.3786 89.814 28.5321 90.2568 28.5321C90.6996 28.5321 91.1039 28.3978 91.3735 28.11C91.6623 27.8222 91.8163 27.4384 91.8163 26.9396C91.8163 26.4407 91.6623 26.0569 91.3735 25.7691C91.1039 25.5005 90.7189 25.3662 90.2568 25.3662ZM90.2568 28.8967C89.66 28.8967 89.1787 28.724 88.8129 28.3786C88.4471 28.0333 88.2545 27.5536 88.2545 26.9587C88.2545 26.3639 88.4471 25.8842 88.8129 25.5389C89.1787 25.1935 89.66 25.0208 90.2568 25.0208C90.8536 25.0208 91.3735 25.1935 91.7393 25.5389C92.1243 25.8842 92.2976 26.3639 92.2976 26.9587C92.2976 27.5536 92.1051 28.0333 91.7393 28.3786C91.3735 28.724 90.8729 28.8967 90.2568 28.8967Z" fill="#231F20"/>
<path d="M89.1402 28.1292C89.4289 28.417 89.7947 28.5513 90.2568 28.5513C90.7189 28.5513 91.1232 28.417 91.412 28.1292C91.7008 27.8414 91.8548 27.4384 91.8548 26.9396C91.8548 26.4407 91.7008 26.0377 91.412 25.7499C91.1232 25.4621 90.7381 25.3278 90.2568 25.3278C89.7947 25.3278 89.4289 25.4621 89.1594 25.7499C88.8706 26.0377 88.7166 26.4407 88.7166 26.9396C88.7166 27.4384 88.8514 27.8414 89.1402 28.1292ZM88.8321 25.5389C89.1786 25.1935 89.66 25.04 90.2376 25.04C90.8151 25.04 91.3157 25.2127 91.6815 25.5389C92.0473 25.8842 92.2398 26.3447 92.2398 26.9396C92.2398 27.5344 92.0473 27.9949 91.6815 28.3403C91.3157 28.6856 90.8344 28.8583 90.2376 28.8583C89.6407 28.8583 89.1786 28.6856 88.8321 28.3403C88.4663 27.9949 88.293 27.5344 88.293 26.9396C88.293 26.3447 88.4663 25.8842 88.8321 25.5389Z" fill="black"/>
<path d="M95.0892 28.8967C94.5117 28.8967 94.0496 28.724 93.6838 28.3594C93.318 27.9949 93.1255 27.5152 93.1255 26.9204C93.1255 26.3256 93.318 25.8459 93.6838 25.5005C94.0496 25.1551 94.5309 25.0016 95.1085 25.0016C95.6091 25.0016 96.0134 25.0975 96.3407 25.3086C96.668 25.5197 96.8605 25.8075 96.9375 26.1912V26.2296H96.4369C96.3792 25.9418 96.2252 25.7499 95.9941 25.5964C95.7631 25.4429 95.4743 25.3854 95.1277 25.3854C94.6657 25.3854 94.2999 25.5197 94.0496 25.7691C93.7801 26.0377 93.6453 26.4407 93.6453 26.9396C93.6453 27.4384 93.7801 27.8222 94.0496 28.11C94.3191 28.3978 94.6657 28.5321 95.0892 28.5321C95.5128 28.5321 95.8786 28.417 96.1481 28.1868C96.3984 27.9565 96.5332 27.6495 96.5525 27.2466H95.147V26.882H97.0338V28.82H96.6295L96.591 28.2827C96.4369 28.4554 96.2444 28.5897 96.0134 28.7048C95.7246 28.8391 95.4358 28.9159 95.1085 28.9159" fill="#231F20"/>
<path d="M96.591 28.1484C96.4369 28.3594 96.2444 28.513 95.9749 28.6473C95.6861 28.7816 95.3973 28.8583 95.0892 28.8583C94.5309 28.8583 94.0688 28.6856 93.7223 28.3403C93.3565 27.9949 93.1832 27.5152 93.1832 26.9396C93.1832 26.3639 93.3757 25.8842 93.7415 25.5389C94.0881 25.2127 94.5694 25.04 95.147 25.04C95.6283 25.04 96.0326 25.1359 96.3599 25.347C96.6872 25.558 96.8798 25.8459 96.9375 26.1912L96.5139 26.1912C96.4562 25.9226 96.2829 25.7115 96.0519 25.558C95.8016 25.4045 95.5128 25.3278 95.1663 25.3278C94.6849 25.3278 94.3191 25.4621 94.0496 25.7307C93.7801 26.0185 93.6453 26.4023 93.6453 26.9204C93.6453 27.4384 93.7801 27.803 94.0496 28.11C94.3191 28.3978 94.6657 28.5513 95.1085 28.5513C95.5513 28.5513 95.9171 28.4362 96.1866 28.1868C96.4562 27.9373 96.591 27.6111 96.591 27.189H95.1855V26.882H96.9953V28.7432H96.668L96.6295 28.1484H96.591Z" fill="black"/>
<path d="M98.7473 25.0784H98.2467V28.7816H98.7473V25.0784Z" fill="#231F20"/>
<path d="M98.6895 25.1167H98.2852V28.7432H98.6895V25.1167Z" fill="black"/>
<path d="M101.481 28.8967C100.923 28.8967 100.499 28.7816 100.191 28.5705C99.8832 28.3594 99.7291 28.0524 99.7291 27.6687V27.6111H100.23V27.6495C100.23 27.9181 100.326 28.1292 100.538 28.2827C100.75 28.4362 101.058 28.513 101.443 28.513C101.789 28.513 102.059 28.4554 102.251 28.3211C102.444 28.2059 102.54 28.0333 102.54 27.8414C102.54 27.6303 102.463 27.4768 102.309 27.3617C102.174 27.2657 101.905 27.1698 101.52 27.0931L101.096 27.0163C100.653 26.9204 100.326 26.8052 100.133 26.6709C99.9217 26.5174 99.8254 26.2872 99.8254 25.9994C99.8254 25.7115 99.9602 25.4429 100.23 25.2702C100.499 25.0783 100.884 25.0016 101.346 25.0016C101.808 25.0016 102.213 25.0975 102.482 25.3086C102.752 25.5005 102.906 25.7883 102.906 26.1529V26.1912H102.405V26.1529C102.405 25.9034 102.309 25.7115 102.116 25.5772C101.924 25.4429 101.674 25.3854 101.327 25.3854C100.981 25.3854 100.75 25.4429 100.576 25.558C100.403 25.6732 100.326 25.8267 100.326 26.0377C100.326 26.1912 100.384 26.3255 100.499 26.4023C100.615 26.4982 100.807 26.575 101.077 26.6134L101.616 26.7093C102.116 26.8052 102.482 26.9396 102.713 27.0931C102.944 27.2657 103.079 27.496 103.079 27.803C103.079 28.1292 102.925 28.3978 102.636 28.6089C102.348 28.8008 101.962 28.8967 101.481 28.8967Z" fill="#231F20"/>
<path d="M100.23 27.6495C100.23 27.9373 100.345 28.1484 100.557 28.3211C100.788 28.4746 101.096 28.5705 101.5 28.5705C101.847 28.5705 102.136 28.5129 102.328 28.3786C102.521 28.2443 102.636 28.0716 102.636 27.8606C102.636 27.6495 102.559 27.4576 102.386 27.3617C102.251 27.2658 101.982 27.1698 101.577 27.0931L101.154 27.0163C100.711 26.9204 100.403 26.8052 100.21 26.6901C100.018 26.5366 99.9024 26.3256 99.9024 26.0377C99.9024 25.7499 100.037 25.5197 100.287 25.3278C100.557 25.1551 100.923 25.0592 101.385 25.0592C101.847 25.0592 102.232 25.1551 102.502 25.347C102.771 25.5389 102.906 25.8075 102.906 26.1529L102.482 26.1529C102.482 25.9034 102.386 25.6924 102.174 25.558C101.982 25.4237 101.712 25.347 101.366 25.347C101.019 25.347 100.769 25.4045 100.596 25.5197C100.422 25.6348 100.326 25.8075 100.326 26.0185C100.326 26.1912 100.384 26.3256 100.499 26.4215C100.615 26.5174 100.807 26.5942 101.077 26.6517L101.616 26.7477C102.116 26.8436 102.482 26.9779 102.694 27.1314C102.925 27.3041 103.041 27.5152 103.041 27.8222C103.041 28.1484 102.906 28.3978 102.617 28.5897C102.328 28.7816 101.962 28.8775 101.481 28.8775C100.942 28.8775 100.519 28.7816 100.23 28.5705C99.9409 28.3594 99.7869 28.0716 99.7869 27.7071L100.21 27.6879L100.23 27.6495Z" fill="black"/>
<path d="M105.081 28.7816V25.4621H103.676V25.0784H106.987V25.4621H105.563V28.7816H105.081Z" fill="#231F20"/>
<path d="M105.12 25.4237H103.714V25.1167H106.949V25.4237H105.524V28.7432H105.12V25.4237Z" fill="black"/>
<path d="M108.47 25.0784H107.969V28.7816H108.47V25.0784Z" fill="#231F20"/>
<path d="M108.412 25.1167H108.008V28.7432H108.412V25.1167Z" fill="black"/>
<path d="M111.531 28.8967C110.915 28.8967 110.414 28.724 110.068 28.3786C109.702 28.0333 109.529 27.5536 109.529 26.9396C109.529 26.3256 109.721 25.8459 110.087 25.5197C110.453 25.1743 110.934 25.0208 111.57 25.0208C112.089 25.0208 112.513 25.1359 112.84 25.347C113.168 25.558 113.341 25.8459 113.36 26.2104V26.2488H112.879V26.2104C112.84 25.961 112.705 25.7499 112.474 25.6156C112.243 25.4621 111.935 25.4045 111.57 25.4045C111.088 25.4045 110.722 25.5389 110.453 25.8075C110.183 26.0761 110.049 26.4599 110.049 26.9587C110.049 27.4576 110.183 27.8606 110.453 28.1484C110.722 28.417 111.108 28.5513 111.57 28.5513C111.955 28.5513 112.282 28.4554 112.513 28.3019C112.744 28.1292 112.879 27.8989 112.917 27.6111V27.5728H113.399V27.6111C113.36 28.0141 113.168 28.3403 112.84 28.5897C112.513 28.82 112.089 28.9351 111.531 28.9351" fill="#231F20"/>
<path d="M113.341 27.5536C113.302 27.9565 113.129 28.2635 112.802 28.4938C112.494 28.724 112.051 28.8391 111.531 28.8391C110.915 28.8391 110.434 28.6665 110.087 28.3211C109.721 27.9757 109.548 27.5152 109.548 26.9012C109.548 26.2872 109.721 25.8459 110.087 25.5005C110.434 25.1743 110.915 25.0016 111.531 25.0016C112.051 25.0016 112.455 25.0975 112.783 25.3086C113.091 25.5197 113.264 25.7883 113.302 26.1529H112.898C112.86 25.8842 112.725 25.6732 112.474 25.5197C112.243 25.3662 111.935 25.2894 111.55 25.2894C111.069 25.2894 110.684 25.4237 110.395 25.6924C110.126 25.9802 109.991 26.3639 109.991 26.882C109.991 27.4001 110.126 27.803 110.414 28.0908C110.703 28.3786 111.069 28.513 111.57 28.513C111.974 28.513 112.301 28.417 112.532 28.2443C112.783 28.0716 112.917 27.8222 112.937 27.5152H113.341V27.5536Z" fill="black"/>
<path d="M115.882 28.8967C115.324 28.8967 114.9 28.7816 114.592 28.5705C114.284 28.3594 114.13 28.0524 114.13 27.6687V27.6111H114.631V27.6495C114.631 27.9181 114.727 28.1292 114.939 28.2827C115.151 28.4362 115.459 28.513 115.844 28.513C116.19 28.513 116.46 28.4554 116.652 28.3211C116.845 28.2059 116.941 28.0333 116.941 27.8414C116.941 27.6303 116.864 27.4768 116.71 27.3617C116.575 27.2657 116.306 27.1698 115.921 27.0931L115.497 27.0163C115.054 26.9204 114.727 26.8052 114.535 26.6709C114.323 26.5174 114.226 26.2872 114.226 25.9994C114.226 25.7115 114.361 25.4429 114.631 25.2702C114.9 25.0783 115.285 25.0016 115.747 25.0016C116.209 25.0016 116.614 25.0975 116.883 25.3086C117.153 25.5005 117.307 25.7883 117.307 26.1529V26.1912H116.806V26.1529C116.806 25.9034 116.71 25.7115 116.518 25.5772C116.325 25.4429 116.075 25.3854 115.728 25.3854C115.382 25.3854 115.151 25.4429 114.977 25.558C114.804 25.6732 114.727 25.8267 114.727 26.0377C114.727 26.1912 114.785 26.3255 114.9 26.4023C115.016 26.4982 115.208 26.575 115.478 26.6134L116.017 26.7093C116.518 26.8052 116.883 26.9396 117.114 27.0931C117.345 27.2657 117.48 27.496 117.48 27.803C117.48 28.1292 117.326 28.3978 117.037 28.6089C116.749 28.8008 116.364 28.8967 115.882 28.8967Z" fill="#231F20"/>
<path d="M114.631 27.6495C114.631 27.9373 114.746 28.1484 114.958 28.3211C115.189 28.4746 115.497 28.5705 115.901 28.5705C116.248 28.5705 116.537 28.5129 116.729 28.3786C116.922 28.2443 117.037 28.0716 117.037 27.8606C117.037 27.6495 116.96 27.4576 116.787 27.3617C116.652 27.2658 116.383 27.1698 115.978 27.0931L115.555 27.0163C115.112 26.9204 114.804 26.8052 114.612 26.6901C114.419 26.5366 114.303 26.3256 114.303 26.0377C114.303 25.7499 114.438 25.5197 114.708 25.3278C114.977 25.1551 115.343 25.0592 115.805 25.0592C116.267 25.0592 116.652 25.1551 116.922 25.347C117.191 25.5389 117.326 25.8075 117.326 26.1529H116.903C116.903 25.9034 116.806 25.6924 116.595 25.558C116.402 25.4237 116.132 25.347 115.786 25.347C115.439 25.347 115.189 25.4045 115.016 25.5197C114.843 25.6348 114.746 25.8075 114.746 26.0185C114.746 26.1912 114.804 26.3256 114.92 26.4215C115.035 26.5174 115.228 26.5942 115.497 26.6517L116.036 26.7477C116.537 26.8436 116.903 26.9779 117.114 27.1314C117.345 27.3041 117.461 27.5152 117.461 27.8222C117.461 28.1484 117.326 28.3978 117.037 28.5897C116.749 28.7816 116.383 28.8775 115.901 28.8775C115.362 28.8775 114.939 28.7816 114.65 28.5705C114.361 28.3594 114.207 28.0716 114.207 27.7071L114.631 27.6879L114.631 27.6495Z" fill="black"/>
<path d="M86.5795 32.9069C86.9838 32.9069 87.2919 32.8494 87.4652 32.7534C87.6384 32.6383 87.7347 32.4656 87.7347 32.2162C87.7347 32.1011 87.6962 32.0051 87.6384 31.9092C87.5807 31.8132 87.5037 31.7557 87.4074 31.6981C87.3111 31.6405 87.1764 31.6022 87.0416 31.583C86.9453 31.583 86.7721 31.583 86.5603 31.583H85.4244V32.9261H86.5795V32.9069ZM87.754 34.9025C87.754 34.9025 87.6962 34.7873 87.6962 34.7298C87.6962 34.6722 87.6577 34.5955 87.6577 34.4995L87.5999 34.0198C87.5807 33.7128 87.5037 33.5209 87.4074 33.425C87.2919 33.3291 87.0609 33.2907 86.7143 33.2907H85.4244V34.9025H84.9238V31.1992H86.4833C86.7721 31.1992 87.0031 31.1992 87.1379 31.2184C87.3496 31.2376 87.5229 31.276 87.6769 31.3527C87.8502 31.4295 88.0042 31.5446 88.1005 31.6981C88.1968 31.8516 88.2545 32.0243 88.2545 32.197C88.2545 32.4272 88.1968 32.6191 88.062 32.7918C87.9465 32.9261 87.7925 33.0221 87.5999 33.0988C87.7732 33.1564 87.8887 33.2523 87.9657 33.3674C88.0235 33.4634 88.062 33.6553 88.1005 33.9239L88.1583 34.4803C88.1583 34.4803 88.1775 34.6338 88.216 34.6722C88.2353 34.7298 88.2545 34.749 88.293 34.7873V34.9025H87.754Z" fill="#231F20"/>
<path d="M86.5795 32.9453C87.0031 32.9453 87.2919 32.8877 87.4844 32.7726C87.6769 32.6575 87.7732 32.4656 87.7732 32.197C87.7732 32.0819 87.7347 31.9667 87.6769 31.8708C87.6192 31.7749 87.5422 31.6981 87.4267 31.6405C87.3304 31.583 87.1956 31.5446 87.0416 31.5254C86.9261 31.5254 86.7721 31.5254 86.541 31.5254H85.3474V32.9453H86.5795ZM84.9623 31.2376H86.464C86.7528 31.2376 86.9646 31.2376 87.1186 31.2568C87.3304 31.276 87.5037 31.3144 87.6577 31.3911C87.831 31.4679 87.9657 31.583 88.062 31.7173C88.1583 31.8516 88.216 32.0243 88.216 32.197C88.216 32.4272 88.1583 32.5999 88.0235 32.7726C87.8887 32.9261 87.7155 33.0413 87.4844 33.0988C87.6962 33.1564 87.8502 33.2523 87.9272 33.3866C87.985 33.4826 88.0235 33.6553 88.062 33.9431L88.1198 34.4803C88.1198 34.4803 88.139 34.6338 88.1775 34.6914C88.1968 34.749 88.2353 34.7873 88.2738 34.8065V34.8641H87.8117C87.8117 34.8641 87.7732 34.7681 87.754 34.7106C87.754 34.653 87.7347 34.5763 87.7155 34.4803L87.6577 34.0006C87.6384 33.6744 87.5614 33.4826 87.4459 33.3866C87.3304 33.2907 87.0994 33.2331 86.7336 33.2331H85.4051V34.8449H85.0008V31.2184L84.9623 31.2376Z" fill="black"/>
<path d="M91.0462 31.4679C90.6034 31.4679 90.2376 31.6022 89.968 31.8708C89.6792 32.1586 89.5445 32.5424 89.5445 33.0413C89.5445 33.5401 89.6792 33.9239 89.968 34.2117C90.2376 34.4803 90.6034 34.6338 91.0462 34.6338C91.489 34.6338 91.8933 34.4995 92.1628 34.2117C92.4516 33.9239 92.6056 33.5401 92.6056 33.0413C92.6056 32.5424 92.4516 32.1586 92.1628 31.8708C91.8933 31.6022 91.5082 31.4679 91.0462 31.4679ZM91.0462 34.9984C90.4493 34.9984 89.968 34.8257 89.6022 34.4803C89.2364 34.1349 89.0439 33.6553 89.0439 33.0604C89.0439 32.4656 89.2364 31.9859 89.6022 31.6405C89.968 31.2952 90.4493 31.1225 91.0462 31.1225C91.643 31.1225 92.1628 31.2952 92.5286 31.6405C92.9137 31.9859 93.087 32.4656 93.087 33.0604C93.087 33.6553 92.8944 34.1349 92.5286 34.4803C92.1628 34.8257 91.6623 34.9984 91.0462 34.9984Z" fill="#231F20"/>
<path d="M89.9295 34.2309C90.2183 34.5187 90.5841 34.653 91.0462 34.653C91.5082 34.653 91.9125 34.5187 92.2013 34.2309C92.4901 33.9431 92.6441 33.5401 92.6441 33.0413C92.6441 32.5424 92.4901 32.1394 92.2013 31.8516C91.9125 31.5638 91.5275 31.4295 91.0462 31.4295C90.5841 31.4295 90.2183 31.5638 89.9488 31.8516C89.66 32.1394 89.506 32.5424 89.506 33.0413C89.506 33.5401 89.6407 33.9431 89.9295 34.2309ZM89.6407 31.6405C89.9873 31.2952 90.4686 31.1417 91.0462 31.1417C91.6238 31.1417 92.1243 31.3144 92.4901 31.6405C92.8559 31.9859 93.0485 32.4464 93.0485 33.0413C93.0485 33.6361 92.8559 34.0966 92.4901 34.442C92.1243 34.7873 91.643 34.96 91.0462 34.96C90.4493 34.96 89.9873 34.7873 89.6407 34.442C89.2749 34.0966 89.1016 33.6361 89.1016 33.0413C89.1016 32.4464 89.2749 31.9859 89.6407 31.6405Z" fill="black"/>
<path d="M97.6499 34.9025V31.9092L96.3407 34.9025H95.9171L94.6079 31.9284V34.9025H94.1266V31.1992H94.7812L96.1289 34.2501L97.4766 31.1992H98.1312V34.9025H97.6499Z" fill="#231F20"/>
<path d="M94.1651 31.2376H94.762L96.1289 34.346L97.5151 31.2376H98.0927V34.8641H97.6884V31.7365L96.3022 34.8641H95.9556L94.5694 31.7365V34.8641H94.1651V31.2376Z" fill="black"/>
<path d="M101.674 33.425L100.846 31.6789L100.037 33.425H101.674ZM102.348 34.9025L101.847 33.7896H99.8447L99.3248 34.9025H98.805L100.576 31.1992H101.115L102.887 34.9025H102.348Z" fill="#231F20"/>
<path d="M101.731 33.4442L100.846 31.583L99.9794 33.4442H101.731ZM100.596 31.2376H101.096L102.829 34.8641H102.386L101.885 33.7512H99.8447L99.3249 34.8641H98.882L100.615 31.2376H100.596Z" fill="black"/>
<path d="M106.487 34.9025L104.196 31.9092V34.9025H103.695V31.1992H104.215L106.506 34.1733V31.1992H107.007V34.9025H106.487Z" fill="#231F20"/>
<path d="M103.734 34.8641V31.2376H104.196L106.545 34.2885V31.2376H106.968V34.8641H106.506L104.157 31.794V34.8641H103.734Z" fill="black"/>
<path d="M108.778 31.1992H108.277V34.9025H108.778V31.1992Z" fill="#231F20"/>
<path d="M108.72 31.2376H108.316V34.8641H108.72V31.2376Z" fill="black"/>
<path d="M112.282 33.425L111.454 31.6789L110.645 33.425H112.282ZM112.975 34.9025L112.474 33.7896H110.472L109.952 34.9025H109.433L111.204 31.1992H111.743L113.514 34.9025H112.975Z" fill="#231F20"/>
<path d="M112.359 33.4442L111.473 31.583L110.607 33.4442H112.359ZM111.223 31.2376H111.724L113.456 34.8641H113.014L112.513 33.7512H110.472L109.952 34.8641H109.51L111.242 31.2376H111.223Z" fill="black"/>
</svg>
