<svg width="50" height="38" viewBox="0 0 50 38" fill="none" xmlns="http://www.w3.org/2000/svg">
<path d="M46.3638 8.22407C42.1285 5.31685 33.7212 0.439697 25 0.439697C16.2788 0.439697 7.87148 5.31685 3.63623 8.22407C1.35938 9.78696 0 12.3724 0 15.1401C0 17.7314 1.16816 20.1364 3.20488 21.7384L4.98047 23.135V28.2829C4.98047 28.4027 4.99512 28.5219 5.02422 28.6381C6.3374 33.8913 11.0364 37.5602 16.4514 37.5602H33.5486C38.9635 37.5602 43.6625 33.8914 44.9758 28.6381C45.0049 28.5219 45.0195 28.4026 45.0195 28.2829V23.135L46.7951 21.7384C48.8318 20.1363 50 17.7314 50 15.1401C50 12.3724 48.6406 9.78696 46.3638 8.22407ZM33.5486 34.6305H16.4514C13.0434 34.6305 10.0126 32.6959 8.53897 29.7477H41.4611C39.9874 32.6959 36.9567 34.6305 33.5486 34.6305ZM42.0898 26.818H7.91016V23.8883H42.0898V26.818ZM44.9839 19.4357L43.0477 20.9587H6.95234L5.01611 19.4357C3.69014 18.3927 2.92969 16.827 2.92969 15.1401C2.92969 13.3382 3.81367 11.6558 5.29434 10.6395C9.2498 7.92427 17.0695 3.36938 25 3.36938C32.9305 3.36938 40.7502 7.92437 44.7057 10.6395C46.1863 11.6558 47.0703 13.3382 47.0703 15.1401C47.0703 16.827 46.3099 18.3927 44.9839 19.4357Z" fill="white"/>
<path d="M29.4206 8.05259L25.5144 6.58774C25.1828 6.46343 24.8172 6.46343 24.4858 6.58774L20.5795 8.05259C20.0078 8.26694 19.629 8.81353 19.629 9.42417V11.7454C19.629 14.7895 21.6916 17.4312 24.6448 18.1695C24.7615 18.1986 24.8808 18.2132 25.0001 18.2132C25.1195 18.2132 25.2387 18.1987 25.3554 18.1695C28.3085 17.4311 30.3711 14.7895 30.3711 11.7454V9.42417C30.3711 8.81353 29.9923 8.26694 29.4206 8.05259ZM27.4414 11.7454C27.4414 13.3177 26.4545 14.6975 25 15.2195C23.5455 14.6976 22.5586 13.3177 22.5586 11.7454V10.4393L25 9.52378L27.4414 10.4393V11.7454Z" fill="white"/>
</svg>
