<svg width="50" height="50" viewBox="0 0 50 50" fill="none" xmlns="http://www.w3.org/2000/svg">
<path fill-rule="evenodd" clip-rule="evenodd" d="M42.1437 9.58541C42.1458 6.88749 40.2645 4.55416 37.6291 3.98333C37.625 3.98124 37.6187 3.98124 37.6145 3.97916C29.2 2.24166 20.7916 2.23124 12.3812 3.99374C12.377 3.99374 12.3729 3.99583 12.3687 3.99583C9.7437 4.56874 7.87078 6.89166 7.87078 9.57916C7.8562 15.4708 7.8562 27.85 7.8562 34.3375C7.8562 37.5021 10.4208 40.0667 13.5854 40.0667H36.4145C39.5791 40.0667 42.1437 37.5021 42.1437 34.3375V9.58541ZM39.0187 9.58333V34.3375C39.0187 35.775 37.8541 36.9417 36.4145 36.9417H13.5854C12.1458 36.9417 10.9812 35.775 10.9812 34.3375C10.9812 27.8521 10.9812 15.4771 10.9958 9.58333V9.57916C10.9958 8.36249 11.8416 7.31041 13.0312 7.04999C21.0104 5.38124 28.9895 5.39166 36.9729 7.03749C38.1687 7.29999 39.0187 8.36041 39.0187 9.58333Z" fill="white"/>
<path fill-rule="evenodd" clip-rule="evenodd" d="M34.0041 39.1105L37.1208 46.5105C37.4541 47.3063 38.3729 47.6792 39.1666 47.3438C39.9625 47.0084 40.3354 46.0917 40 45.298L36.8833 37.8979C36.55 37.1021 35.6333 36.7292 34.8375 37.0646C34.0437 37.398 33.6687 38.3167 34.0041 39.1105Z" fill="white"/>
<path fill-rule="evenodd" clip-rule="evenodd" d="M13.2291 37.8979L10.1124 45.298C9.777 46.0917 10.152 47.0084 10.9458 47.3438C11.7416 47.6792 12.6583 47.3063 12.9916 46.5105L16.1083 39.1105C16.4437 38.3167 16.0708 37.398 15.2749 37.0646C14.4812 36.7292 13.5624 37.1021 13.2291 37.8979Z" fill="white"/>
<path d="M15.7082 33.3104C16.8553 33.3104 17.7853 32.3805 17.7853 31.2333C17.7853 30.0862 16.8553 29.1562 15.7082 29.1562C14.561 29.1562 13.6311 30.0862 13.6311 31.2333C13.6311 32.3805 14.561 33.3104 15.7082 33.3104Z" fill="white"/>
<path d="M34.4062 33.3104C35.5533 33.3104 36.4833 32.3805 36.4833 31.2333C36.4833 30.0862 35.5533 29.1562 34.4062 29.1562C33.259 29.1562 32.3291 30.0862 32.3291 31.2333C32.3291 32.3805 33.259 33.3104 34.4062 33.3104Z" fill="white"/>
<path fill-rule="evenodd" clip-rule="evenodd" d="M21.9958 32.7958H28.1167C28.9792 32.7958 29.6792 32.0958 29.6792 31.2333C29.6792 30.3708 28.9792 29.6708 28.1167 29.6708H21.9958C21.1333 29.6708 20.4333 30.3708 20.4333 31.2333C20.4333 32.0958 21.1333 32.7958 21.9958 32.7958Z" fill="white"/>
<path fill-rule="evenodd" clip-rule="evenodd" d="M37.4667 42.1354H12.5354C11.6729 42.1354 10.9729 42.8354 10.9729 43.6979C10.9729 44.5604 11.6729 45.2604 12.5354 45.2604H37.4667C38.3271 45.2604 39.0292 44.5604 39.0292 43.6979C39.0292 42.8354 38.3271 42.1354 37.4667 42.1354Z" fill="white"/>
<path fill-rule="evenodd" clip-rule="evenodd" d="M36.95 12.5417C36.95 11.573 36.5667 10.6459 35.8834 9.96254C35.198 9.27921 34.2709 8.89587 33.3042 8.89587C29.323 8.89587 20.6771 8.89587 16.6959 8.89587C15.7292 8.89587 14.8021 9.27921 14.1167 9.96254C13.4334 10.6459 13.05 11.573 13.05 12.5417V22.9167C13.05 23.8834 13.4334 24.8105 14.1167 25.4959C14.8021 26.1792 15.7292 26.5625 16.6959 26.5625H33.3042C34.2709 26.5625 35.198 26.1792 35.8834 25.4959C36.5667 24.8105 36.95 23.8834 36.95 22.9167V12.5417ZM33.825 12.5417V22.9167C33.825 23.0542 33.7709 23.1875 33.673 23.2855C33.575 23.3834 33.4417 23.4375 33.3042 23.4375H16.6959C16.5584 23.4375 16.425 23.3834 16.3271 23.2855C16.2292 23.1875 16.175 23.0542 16.175 22.9167V12.5417C16.175 12.4021 16.2292 12.2709 16.3271 12.173C16.425 12.075 16.5584 12.0209 16.6959 12.0209H33.3042C33.4417 12.0209 33.575 12.075 33.673 12.173C33.7709 12.2709 33.825 12.4021 33.825 12.5417Z" fill="white"/>
</svg>
