<svg width="48" height="48" viewBox="0 0 48 48" fill="none" xmlns="http://www.w3.org/2000/svg">
<g clip-path="url(#clip0_389_451)">
<path d="M47.7854 23.1244L42.5508 14.7715C42.2937 14.361 41.8433 14.1119 41.3591 14.1119H31.7798V11.9601C31.7798 9.24243 29.569 7.03125 26.851 7.03125H4.36414C1.95776 7.03125 0 8.98901 0 11.3954V33.2238C0 34.0001 0.629517 34.63 1.40625 34.63H5.94397C5.93481 34.7637 5.92859 34.8988 5.92859 35.0347C5.92859 38.298 8.58362 40.953 11.8469 40.953C15.1102 40.953 17.7649 38.298 17.7649 35.0347C17.7649 34.8984 17.7587 34.7637 17.7495 34.63H33.6357C33.627 34.7637 33.6204 34.8988 33.6204 35.0347C33.6204 38.298 36.2754 40.953 39.5387 40.953C42.802 40.953 45.4567 38.298 45.4567 35.0347C45.4567 34.8984 45.4504 34.7637 45.4413 34.63H46.5938C47.3705 34.63 48 34.0001 48 33.2238V23.8711C48 23.6071 47.9257 23.3481 47.7854 23.1244ZM44.3661 22.9647H38.3064V16.9244H40.5809L44.3661 22.9647ZM2.8125 11.3954C2.8125 10.5399 3.50867 9.84375 4.36414 9.84375H26.851C28.0181 9.84375 28.9673 10.7933 28.9673 11.9601V25.3934H2.8125V11.3954ZM2.8125 31.8175V28.2059H28.9673V31.8175H16.8098C15.7537 30.1934 13.9241 29.1167 11.8469 29.1167C9.76941 29.1167 7.93982 30.1937 6.88367 31.8175H2.8125ZM11.8469 38.1405C10.1345 38.1405 8.74109 36.7474 8.74109 35.035C8.74109 33.3226 10.1345 31.9292 11.8469 31.9292C13.5593 31.9292 14.9524 33.3226 14.9524 35.035C14.9524 36.7474 13.5593 38.1405 11.8469 38.1405ZM39.5387 38.1405C37.8263 38.1405 36.4329 36.7474 36.4329 35.035C36.4329 33.3226 37.8263 31.9292 39.5387 31.9292C41.2511 31.9292 42.6442 33.3226 42.6442 35.035C42.6442 36.7474 41.2511 38.1405 39.5387 38.1405ZM39.5387 29.1167C37.4612 29.1167 35.6316 30.1937 34.5754 31.8175H31.7798V16.9244H35.4939V24.3706C35.4939 25.1473 36.1238 25.7769 36.9001 25.7769H45.1875V31.8171H44.5016C43.4454 30.1934 41.6158 29.1167 39.5387 29.1167Z" fill="white"/>
</g>
<defs>
<clipPath id="clip0_389_451">
<rect width="48" height="48" fill="white"/>
</clipPath>
</defs>
</svg>
